<?xml version="1.0" encoding="UTF-8"?><svg id="Layer_2" xmlns="http://www.w3.org/2000/svg" viewBox="0 0 1721.76 1721.75"><defs><style>.cls-1{fill:#fff;}</style></defs><path class="cls-1" d="M860.88,0C385.43,0,0,385.43,0,860.88s385.43,860.87,860.88,860.87,860.88-385.43,860.88-860.88S1336.33,0,860.88,0Zm-138.04,591.02l363.87,215.06h-.01l-46.03,77.61-363.79-214.98,45.97-77.69Zm-97.36,208.51l408.09,109.33h0s0,0,0,0h0s-23.35,87.31-23.35,87.31l-408.03-109.4,23.29-87.25Zm-40.62,188.82l420.61,38.81h.01l-7.77,89.6-421.21-38.81,8.36-89.6Zm-11.9,154.64l422.35-.61v90.19l-422.35,.61v-90.19Zm565.67,232.45v.61H462.42c-20.95,0-20.95-.61-20.95-.61h-.61v-439.74h72.33v369.28h554.43v-369.28h71.59v418.86h.01c0,20.88-.61,20.88-.61,20.88Zm-36.94-581.87l-238.47-348.88,74.67-51.46,237.8,349.55-74,50.79Zm179.18-71.66l-89.06,15.52-72.26-416.46,88.99-15.52,72.33,416.46h0Z"/></svg>